<svg width="70" height="99" viewBox="0 0 70 99" fill="none" xmlns="http://www.w3.org/2000/svg">
<path d="M32.8438 47.9688C32.3229 47.0104 31.5417 46.1458 30.5 45.375C29.4583 44.6042 28.2812 43.9896 26.9688 43.5312C25.6771 43.0521 24.3229 42.6979 22.9062 42.4688C18.6979 41.8438 14.7708 40.4792 11.125 38.375C10.8125 38.2083 10.4792 37.8542 10.125 37.3125C9.77083 36.7708 9.59375 36.25 9.59375 35.75C9.59375 33.9167 9.89583 32.0833 10.5 30.25C11.125 28.3958 11.9167 26.9479 12.875 25.9062C14.4167 24.1771 17.1875 22.6667 21.1875 21.375C25.2083 20.0833 29.7292 19.4375 34.75 19.4375C37.75 19.4375 40.0625 19.6667 41.6875 20.125C43.3333 20.5833 44.1562 21.2917 44.1562 22.25C44.1562 23.8125 43.9375 25.0208 43.5 25.875C43.0833 26.7292 42.625 27.3021 42.125 27.5938C41.6458 27.8646 40.7917 28.2396 39.5625 28.7188C38.25 29.1771 37.1042 29.6562 36.125 30.1562C35.1667 30.6562 34.3438 31.1354 33.6562 31.5938C32.9688 32.0521 32.5417 32.2812 32.375 32.2812C32.1667 32.2812 32.0625 32.1979 32.0625 32.0312C32.0625 31.6771 32.4271 31.1458 33.1562 30.4375C33.9062 29.7083 34.8229 29.0729 35.9062 28.5312C37.0521 27.9271 37.625 27.5417 37.625 27.375C37.625 27.1042 36.9896 26.9688 35.7188 26.9688C31.8646 26.9688 28.3021 27.3125 25.0312 28C21.7604 28.6875 19.1771 29.5938 17.2812 30.7188C15.4062 31.8438 14.4688 32.9896 14.4688 34.1562C14.4688 34.8854 14.8542 35.4062 15.625 35.7188C16.4167 36.0104 18.1458 36.5104 20.8125 37.2188C23.4792 37.9271 25.8646 38.7396 27.9688 39.6562C30.9896 40.9479 33.2292 42.2917 34.6875 43.6875C36.1458 45.0833 36.875 46.6458 36.875 48.375C36.875 49.5625 36.5833 50.7604 36 51.9688C35.4375 53.1562 34.6042 54.25 33.5 55.25C32.3958 56.25 31.125 57.0729 29.6875 57.7188C28.4583 58.2396 26.9062 58.7292 25.0312 59.1875C23.1771 59.6458 21.1562 60 18.9688 60.25C16.8021 60.5208 14.7292 60.6562 12.75 60.6562C9.10417 60.6562 6.16667 60.3125 3.9375 59.625C1.72917 58.9375 0.625 57.8958 0.625 56.5C0.625 55.875 1 54.9062 1.75 53.5938C2.5 52.2604 3.38542 51.3646 4.40625 50.9062C5.30208 50.5521 6.16667 50.3542 7 50.3125C7.83333 50.25 8.25 50.3438 8.25 50.5938C8.25 50.6562 8.21875 50.7188 8.15625 50.7812C8.09375 50.8438 8.02083 50.8958 7.9375 50.9375C7.85417 50.9792 7.77083 51.0208 7.6875 51.0625C7.27083 51.2292 6.92708 51.3646 6.65625 51.4688C6.40625 51.5521 6.19792 51.6458 6.03125 51.75C5.88542 51.8333 5.8125 51.9583 5.8125 52.125C5.8125 52.5625 7.96875 52.7812 12.2812 52.7812C16.0312 52.7812 19.1042 52.6458 21.5 52.375C23.8958 52.1042 26.0104 51.6146 27.8438 50.9062C29.6771 50.1979 31.3438 49.2188 32.8438 47.9688Z" fill="white"/>
<path d="M34.8438 64.9062C38.5729 58.8021 41.3542 54 43.1875 50.5C45.0417 46.9792 45.9688 44.7396 45.9688 43.7812C45.9688 43.4271 45.8438 43.1354 45.5938 42.9062C45.3438 42.6771 45.0521 42.5625 44.7188 42.5625C44.0729 42.5625 42.25 43.1875 39.25 44.4375C36.7708 45.4792 34.9583 46.3125 33.8125 46.9375C32.6667 47.5417 31.0833 48.4167 29.0625 49.5625C27.0625 50.7083 25.9167 51.2812 25.625 51.2812C25.0417 51.2812 24.75 50.875 24.75 50.0625C24.75 48.5208 25.7604 46.4479 27.7812 43.8438C29.8021 41.2396 32.5208 38.9583 35.9375 37C36.3542 36.7292 36.5625 36.75 36.5625 37.0625C36.5625 37.1667 36.3125 37.4062 35.8125 37.7812C35.3125 38.1562 34.8646 38.5417 34.4688 38.9375C34.0938 39.3125 33.6667 39.8854 33.1875 40.6562C37.5625 38.4688 40.7708 36.9271 42.8125 36.0312C44.875 35.1354 46.6354 34.6875 48.0938 34.6875C49.3646 34.6875 50.3646 34.9583 51.0938 35.5C51.8229 36.0208 52.1875 36.7812 52.1875 37.7812C52.1875 38.6562 51.8333 39.9271 51.125 41.5938C50.4375 43.2604 49.4271 45.2917 48.0938 47.6875C46.7604 50.0625 45.3958 52.4167 44 54.75C42.625 57.0833 40.125 61.3021 36.5 67.4062C40.5417 62.3438 44.2604 57.9167 47.6562 54.125C51.0521 50.3333 54.0104 47.25 56.5312 44.875C59.0521 42.5 61.1771 40.7188 62.9062 39.5312C64.6354 38.3229 65.9062 37.7188 66.7188 37.7188C67.0104 37.7188 67.3542 38 67.75 38.5625C68.1458 39.1042 68.5 39.7708 68.8125 40.5625C69.125 41.3542 69.2812 42 69.2812 42.5C69.2812 43.875 68.9271 45.2396 68.2188 46.5938C67.5312 47.9479 66.5 49.5729 65.125 51.4688C61.2083 56.7604 58.3438 60.9271 56.5312 63.9688C54.7396 67.0104 53.8438 69.4583 53.8438 71.3125C53.8438 72.7083 54.5729 73.4062 56.0312 73.4062C56.6979 73.4062 57.4792 73.1562 58.375 72.6562C59.2708 72.1562 60.3438 71.3854 61.5938 70.3438C62.8438 69.3021 64.1042 68.1667 65.375 66.9375L65.4375 69.375C63.6458 71.2083 62.0417 72.7812 60.625 74.0938C59.2083 75.3854 57.8646 76.5208 56.5938 77.5C55.3438 78.4792 54.2188 79.2188 53.2188 79.7188C52.2188 80.2188 51.3438 80.4688 50.5938 80.4688C49.5104 80.4688 48.6354 80.0938 47.9688 79.3438C47.3229 78.6146 47 77.6458 47 76.4375C47 75.3125 47.2396 73.9583 47.7188 72.375C48.2188 70.7708 48.9688 68.9271 49.9688 66.8438C50.9896 64.7604 52.2396 62.5 53.7188 60.0625C55.2188 57.625 56.9062 55.0833 58.7812 52.4375C60.6146 49.8125 61.5312 48.125 61.5312 47.375C61.5312 46.9375 61.3021 46.7188 60.8438 46.7188C58.9896 46.7188 54.7604 50.4167 48.1562 57.8125C47.7396 58.2708 47.0104 59.125 45.9688 60.375C44.9479 61.6042 43.8958 62.9167 42.8125 64.3125C41.75 65.7083 40.5521 67.2812 39.2188 69.0312C37.8854 70.7604 36.5312 72.5208 35.1562 74.3125C34.5104 75.1667 33.9583 75.5938 33.5 75.5938C33 75.5938 32.3438 75.1875 31.5312 74.375C30.7188 73.5625 30.3125 72.9688 30.3125 72.5938C30.3125 72.1562 30.8854 71.0625 32.0312 69.3125C33.1979 67.5625 34.1354 66.0938 34.8438 64.9062Z" fill="white"/>
</svg>
