<svg width="59" height="79" viewBox="0 0 59 79" fill="none" xmlns="http://www.w3.org/2000/svg">
<path d="M24.6328 36.2266C24.2422 35.5078 23.6562 34.8594 22.875 34.2812C22.0938 33.7031 21.2109 33.2422 20.2266 32.8984C19.2578 32.5391 18.2422 32.2734 17.1797 32.1016C14.0234 31.6328 11.0781 30.6094 8.34375 29.0312C8.10938 28.9062 7.85938 28.6406 7.59375 28.2344C7.32812 27.8281 7.19531 27.4375 7.19531 27.0625C7.19531 25.6875 7.42188 24.3125 7.875 22.9375C8.34375 21.5469 8.9375 20.4609 9.65625 19.6797C10.8125 18.3828 12.8906 17.25 15.8906 16.2812C18.9062 15.3125 22.2969 14.8281 26.0625 14.8281C28.3125 14.8281 30.0469 15 31.2656 15.3438C32.5 15.6875 33.1172 16.2188 33.1172 16.9375C33.1172 18.1094 32.9531 19.0156 32.625 19.6562C32.3125 20.2969 31.9688 20.7266 31.5938 20.9453C31.2344 21.1484 30.5938 21.4297 29.6719 21.7891C28.6875 22.1328 27.8281 22.4922 27.0938 22.8672C26.375 23.2422 25.7578 23.6016 25.2422 23.9453C24.7266 24.2891 24.4062 24.4609 24.2812 24.4609C24.125 24.4609 24.0469 24.3984 24.0469 24.2734C24.0469 24.0078 24.3203 23.6094 24.8672 23.0781C25.4297 22.5312 26.1172 22.0547 26.9297 21.6484C27.7891 21.1953 28.2188 20.9062 28.2188 20.7812C28.2188 20.5781 27.7422 20.4766 26.7891 20.4766C23.8984 20.4766 21.2266 20.7344 18.7734 21.25C16.3203 21.7656 14.3828 22.4453 12.9609 23.2891C11.5547 24.1328 10.8516 24.9922 10.8516 25.8672C10.8516 26.4141 11.1406 26.8047 11.7188 27.0391C12.3125 27.2578 13.6094 27.6328 15.6094 28.1641C17.6094 28.6953 19.3984 29.3047 20.9766 29.9922C23.2422 30.9609 24.9219 31.9688 26.0156 33.0156C27.1094 34.0625 27.6562 35.2344 27.6562 36.5312C27.6562 37.4219 27.4375 38.3203 27 39.2266C26.5781 40.1172 25.9531 40.9375 25.125 41.6875C24.2969 42.4375 23.3438 43.0547 22.2656 43.5391C21.3438 43.9297 20.1797 44.2969 18.7734 44.6406C17.3828 44.9844 15.8672 45.25 14.2266 45.4375C12.6016 45.6406 11.0469 45.7422 9.5625 45.7422C6.82812 45.7422 4.625 45.4844 2.95312 44.9688C1.29688 44.4531 0.46875 43.6719 0.46875 42.625C0.46875 42.1562 0.75 41.4297 1.3125 40.4453C1.875 39.4453 2.53906 38.7734 3.30469 38.4297C3.97656 38.1641 4.625 38.0156 5.25 37.9844C5.875 37.9375 6.1875 38.0078 6.1875 38.1953C6.1875 38.2422 6.16406 38.2891 6.11719 38.3359C6.07031 38.3828 6.01562 38.4219 5.95312 38.4531C5.89062 38.4844 5.82812 38.5156 5.76562 38.5469C5.45312 38.6719 5.19531 38.7734 4.99219 38.8516C4.80469 38.9141 4.64844 38.9844 4.52344 39.0625C4.41406 39.125 4.35938 39.2188 4.35938 39.3438C4.35938 39.6719 5.97656 39.8359 9.21094 39.8359C12.0234 39.8359 14.3281 39.7344 16.125 39.5312C17.9219 39.3281 19.5078 38.9609 20.8828 38.4297C22.2578 37.8984 23.5078 37.1641 24.6328 36.2266Z" fill="black"/>
<path d="M33.1328 53.9297C35.9297 49.3516 38.0156 45.75 39.3906 43.125C40.7812 40.4844 41.4766 38.8047 41.4766 38.0859C41.4766 37.8203 41.3828 37.6016 41.1953 37.4297C41.0078 37.2578 40.7891 37.1719 40.5391 37.1719C40.0547 37.1719 38.6875 37.6406 36.4375 38.5781C34.5781 39.3594 33.2188 39.9844 32.3594 40.4531C31.5 40.9062 30.3125 41.5625 28.7969 42.4219C27.2969 43.2812 26.4375 43.7109 26.2188 43.7109C25.7812 43.7109 25.5625 43.4062 25.5625 42.7969C25.5625 41.6406 26.3203 40.0859 27.8359 38.1328C29.3516 36.1797 31.3906 34.4688 33.9531 33C34.2656 32.7969 34.4219 32.8125 34.4219 33.0469C34.4219 33.125 34.2344 33.3047 33.8594 33.5859C33.4844 33.8672 33.1484 34.1562 32.8516 34.4531C32.5703 34.7344 32.25 35.1641 31.8906 35.7422C35.1719 34.1016 37.5781 32.9453 39.1094 32.2734C40.6562 31.6016 41.9766 31.2656 43.0703 31.2656C44.0234 31.2656 44.7734 31.4688 45.3203 31.875C45.8672 32.2656 46.1406 32.8359 46.1406 33.5859C46.1406 34.2422 45.875 35.1953 45.3438 36.4453C44.8281 37.6953 44.0703 39.2188 43.0703 41.0156C42.0703 42.7969 41.0469 44.5625 40 46.3125C38.9688 48.0625 37.0938 51.2266 34.375 55.8047C37.4062 52.0078 40.1953 48.6875 42.7422 45.8438C45.2891 43 47.5078 40.6875 49.3984 38.9062C51.2891 37.125 52.8828 35.7891 54.1797 34.8984C55.4766 33.9922 56.4297 33.5391 57.0391 33.5391C57.2578 33.5391 57.5156 33.75 57.8125 34.1719C58.1094 34.5781 58.375 35.0781 58.6094 35.6719C58.8438 36.2656 58.9609 36.75 58.9609 37.125C58.9609 38.1562 58.6953 39.1797 58.1641 40.1953C57.6484 41.2109 56.875 42.4297 55.8438 43.8516C52.9062 47.8203 50.7578 50.9453 49.3984 53.2266C48.0547 55.5078 47.3828 57.3438 47.3828 58.7344C47.3828 59.7812 47.9297 60.3047 49.0234 60.3047C49.5234 60.3047 50.1094 60.1172 50.7812 59.7422C51.4531 59.3672 52.2578 58.7891 53.1953 58.0078C54.1328 57.2266 55.0781 56.375 56.0312 55.4531L56.0781 57.2812C54.7344 58.6562 53.5312 59.8359 52.4688 60.8203C51.4062 61.7891 50.3984 62.6406 49.4453 63.375C48.5078 64.1094 47.6641 64.6641 46.9141 65.0391C46.1641 65.4141 45.5078 65.6016 44.9453 65.6016C44.1328 65.6016 43.4766 65.3203 42.9766 64.7578C42.4922 64.2109 42.25 63.4844 42.25 62.5781C42.25 61.7344 42.4297 60.7188 42.7891 59.5312C43.1641 58.3281 43.7266 56.9453 44.4766 55.3828C45.2422 53.8203 46.1797 52.125 47.2891 50.2969C48.4141 48.4688 49.6797 46.5625 51.0859 44.5781C52.4609 42.6094 53.1484 41.3438 53.1484 40.7812C53.1484 40.4531 52.9766 40.2891 52.6328 40.2891C51.2422 40.2891 48.0703 43.0625 43.1172 48.6094C42.8047 48.9531 42.2578 49.5938 41.4766 50.5312C40.7109 51.4531 39.9219 52.4375 39.1094 53.4844C38.3125 54.5312 37.4141 55.7109 36.4141 57.0234C35.4141 58.3203 34.3984 59.6406 33.3672 60.9844C32.8828 61.625 32.4688 61.9453 32.125 61.9453C31.75 61.9453 31.2578 61.6406 30.6484 61.0312C30.0391 60.4219 29.7344 59.9766 29.7344 59.6953C29.7344 59.3672 30.1641 58.5469 31.0234 57.2344C31.8984 55.9219 32.6016 54.8203 33.1328 53.9297Z" fill="black"/>
</svg>
